<?xml version="1.0" encoding="utf-8"?>
<!-- Generator: Adobe Illustrator 27.2.0, SVG Export Plug-In . SVG Version: 6.00 Build 0)  -->
<svg version="1.1" id="Ebene_1" xmlns="http://www.w3.org/2000/svg" xmlns:xlink="http://www.w3.org/1999/xlink" x="0px" y="0px"
	 viewBox="0 0 566.93 134.77" style="enable-background:new 0 0 566.93 134.77;" xml:space="preserve">
<style type="text/css">
	.st0{fill:#323333;}
	.st1{fill:#06F9EC;}
	.st2{fill:#FFFFFF;}
</style>
<path class="st0" d="M205.27,30.32c0.16,0,0.47,0,0.99,0C205.83,30.32,205.46,30.32,205.27,30.32z"/>
<path class="st1" d="M540.32,11.01c1.12-0.93,1.57-2.39,1.15-3.72s-1.62-2.2-3.04-2.2h-20.88c-0.8,0-1.58,0.28-2.21,0.8
	l-28.42,23.36c-0.37,0.3-0.81,0.43-1.28,0.38c-0.46-0.06-0.85-0.3-1.09-0.68L469.77,6.49c-0.59-0.89-1.58-1.42-2.67-1.42h-16.74
	c-1.26,0-2.43,0.7-3.06,1.81c-0.63,1.12-0.61,2.45,0.07,3.49l21.06,32.21c0.45,0.69,0.29,1.63-0.38,2.18l-40.86,33.58
	c-0.42,0.35-1.04,0.27-1.33-0.17l-8.72-13.28c-0.45-0.69-0.29-1.64,0.38-2.18l33.7-27.77c1.12-0.93,1.57-2.39,1.15-3.72
	c-0.43-1.34-1.63-2.2-3.05-2.2h-19.19c-0.8,0-1.58,0.29-2.21,0.8l-20.55,16.89c-0.37,0.3-0.81,0.43-1.28,0.38
	c-0.46-0.06-0.85-0.3-1.09-0.68l-10.51-15.99c-0.59-0.89-1.58-1.42-2.67-1.42h-15.67c-1.26,0-2.43,0.7-3.06,1.81
	c-0.63,1.12-0.61,2.46,0.07,3.49l16.44,25.15c0.45,0.69,0.29,1.63-0.38,2.18l-33.69,27.69c-1.13,0.93-1.58,2.39-1.15,3.73
	c0.43,1.34,1.62,2.2,3.04,2.2h19.38c0.8,0,1.59-0.29,2.22-0.81l20.33-16.75c0.36-0.3,0.82-0.44,1.28-0.38
	c0.46,0.06,0.85,0.3,1.1,0.68l10.35,15.83c0.59,0.9,1.58,1.43,2.68,1.43h22.14c0.8,0,1.58-0.29,2.21-0.81l39.69-32.71
	c0.37-0.3,0.82-0.43,1.28-0.38c0.46,0.06,0.85,0.3,1.1,0.68l20.79,31.79c0.58,0.89,1.58,1.43,2.67,1.43h17.02
	c1.26,0,2.44-0.7,3.07-1.82c0.63-1.12,0.6-2.46-0.07-3.49l-27.34-41.59c-0.45-0.69-0.29-1.64,0.38-2.18L540.32,11.01z"/>
<g>
	<path class="st2" d="M364.08,70.35c0.18-0.74,0.36-1.48,0.53-2.22l-0.01,0.01c-0.18,0.77-0.37,1.54-0.56,2.31
		C364.05,70.42,364.07,70.39,364.08,70.35z"/>
	<path class="st2" d="M360.04,76.87"/>
</g>
<g>
	<path class="st0" d="M277.59,42.53c-2.07-2.99-4.15-5.98-6.17-9c-1.48-2.22-3.46-3.26-6.17-3.24c-9.54,0.06-48.64,0.02-58.19,0.03
		c-0.3,0-0.58,0-0.83,0c1.23,0,1.75,0-2.32,0c-2.83,0-4.06,0.93-4.73,3.6c-0.05,0.19-0.09,0.38-0.14,0.57l-0.02-0.02l-12.94,53.96
		l0.01,0c-0.19,0.79-0.39,1.58-0.57,2.38c-0.64,2.79,0.13,3.75,3.01,3.75c19.03,0.01,41.76,0,60.79,0.01c2.41,0,4.57-0.7,6.46-2.22
		c4.14-3.32,8.26-6.67,12.45-9.93c2.23-1.73,3.55-3.94,4.19-6.66c2.1-8.87,4.24-17.74,6.39-26.6C279.4,46.75,279,44.56,277.59,42.53
		z M260.43,53.19c-1.72,7.18-3.46,14.36-5.21,21.54c-0.64,2.61-2.97,4.45-5.66,4.45c-13.2,0-28.42,0-42.68,0
		c-0.56,0-0.97-0.53-0.84-1.08l7.62-31.83c0.09-0.39,0.44-0.67,0.84-0.67c13.37,0,27.66,0,39.96-0.01
		C258.74,45.6,261.43,49.01,260.43,53.19z"/>
	<path class="st0" d="M189.26,30.33c-9.63,0-40.82,0-57.92,0.01v0.01h-6.36c-0.24,0-0.45,0-0.68,0v0h-23.07
		c-1.91,0-3.04,2.14-1.96,3.72l3.44,5.03c0,0.01,0.01,0.01,0.01,0.02c1.57,2.18,1.9,4.5,1.27,7.07c-1.4,5.73-2.75,11.47-4.13,17.21
		c-2.19,9.11-4.38,18.22-6.57,27.32c-0.81,3.37,0.32,4.11,4.66,3.78c2.27-0.17,4.58-0.14,6.85,0.02c3.65,0.26,5.15-0.55,5.9-3.6
		c1.3-5.36,4.32-17.92,5.12-21.26c0.1-0.43,0.49-0.71,0.93-0.71H165c0.62,0,1.08,0.58,0.93,1.19c-1.67,6.87-3.34,13.74-5,20.6
		c-0.73,3.01,0.34,3.99,3.81,3.79c2.67-0.15,5.35-0.13,8.02,0.01c3.48,0.18,4.88-0.69,5.62-3.74c1.58-6.49,3.16-12.99,4.73-19.48
		c1.78-7.36,3.53-14.73,5.33-22.08c0.08-0.31,0.16-0.59,0.26-0.86l3.49-14.34C192.65,32.15,191.21,30.33,189.26,30.33z M171.02,49
		c-0.47,2.06-0.97,4.11-1.47,6.17c-0.1,0.43-0.49,0.74-0.94,0.74h-48.28c-0.62,0-1.08-0.58-0.94-1.19c0.41-1.73,0.83-3.46,1.24-5.19
		c0.7-2.9,1.89-3.82,4.93-3.83c3.76-0.01,39.07-0.03,42.83,0C170.72,45.72,171.54,46.74,171.02,49z"/>
	<path class="st0" d="M95.82,40.9c-1.6-2.34-3.62-5.31-4.86-7.21c-1.6-2.43-3.74-3.43-6.63-3.41c-14.55,0.06-29.1,0.03-43.66,0.03
		c-0.41,0-0.76-0.02-1.08-0.05H19.49l-0.17,0l0,0h-6.68c-1.91,0-3.04,2.14-1.96,3.72L14.12,39c0,0.01,0.01,0.01,0.01,0.02
		c1.5,2.08,1.84,4.29,1.32,6.72c-0.02,0.12-0.02,0.23-0.05,0.35c-0.09,0.37-0.18,0.75-0.27,1.12c-0.02,0.08-0.03,0.15-0.05,0.22
		c-0.22,0.99-0.35,1.61-0.35,1.61C11.37,62.98,8.02,76.93,4.67,90.87c-0.86,3.58,0.77,4.1,6.14,3.4c2.27,0.07,4.49,0.14,6.76,0.21
		c2.02,0.35,3.9-0.92,4.37-2.84l3.45-13.96c0.03-0.14,0.06-0.28,0.08-0.43c0.04-0.3,0.11-0.64,0.2-1.03
		c0.33-1.39,0.64-2.79,1.01-4.17c0.11-0.42,0.24-0.78,0.38-1.1v0c0.62-1.37,1.59-1.85,3.43-1.85c1.01,0,2.02,0,3.03,0l0.02-0.01
		h14.66c0.44,0,0.85,0.22,1.1,0.58l15.18,22.09c1.17,1.7,3.09,2.71,5.15,2.71h10.77c1.88,0,2.98-2.1,1.92-3.65L68.32,70.48
		c-0.4-0.58,0.02-1.38,0.73-1.38h5.38c3.47,0,6.85-1.18,9.56-3.35l5.61-4.48c0.12-0.11,0.25-0.23,0.39-0.34
		c0.6-0.46,1.19-0.94,1.79-1.41l0.96-0.77c1.69-1.35,2.88-3.24,3.38-5.35l1.13-4.82C97.88,45.94,97.36,43.15,95.82,40.9z
		 M81.04,50.93l-0.08,0.35c-0.16,0.68-0.54,1.29-1.09,1.73l-2.63,2.12c-0.57,0.46-1.29,0.71-2.02,0.7l-0.41-0.01l-40.96,0.01
		c-0.25,0-0.46-0.01-0.67-0.02c-2.08-0.11-2.41-0.82-1.81-3.23c0.29-1.16,0.53-2.32,0.82-3.48c0.71-2.89,1.56-3.56,4.45-3.56
		c9.78,0,19.56,0.01,29.34,0.01c1.42,0,10.76,0,10.76,0h0.25c1.06,0,2.04,0.53,2.63,1.41l0.99,1.49
		C81.08,49.19,81.24,50.08,81.04,50.93z"/>
	<path class="st0" d="M369.05,44.94c-0.25-0.83-0.64-1.63-1.18-2.41c-2.07-2.99-4.15-5.98-6.17-9c-1.45-2.17-3.38-3.21-5.99-3.24
		c-0.3,0-42.06,0.03-47.75,0.03c-2.06,0.15-3.91,0.86-5.57,2.19c-4.14,3.32-8.26,6.67-12.45,9.93c-0.91,0.71-1.66,1.49-2.29,2.36v0
		c-0.9,1.26-1.52,2.69-1.91,4.3c-2.1,8.87-4.24,17.74-6.39,26.6c-0.36,1.49-0.34,2.89,0.05,4.22c0.25,0.83,0.64,1.63,1.18,2.41
		c2.07,2.99,4.15,5.98,6.17,9c1.45,2.17,3.38,3.21,5.99,3.24c0.3,0,0.6,0,0.89,0c4.56-0.03,27.78-0.03,40.02-0.03
		c0.74,0,1.42,0,2.08,0c1.81,0.03,3.76-0.88,5.35-2.16c0.29-0.23,18.97-15.5,18.97-15.5c0.84-0.67,1.55-1.41,2.14-2.22
		c0.88-1.23,1.49-2.63,1.87-4.19c0.18-0.77,0.37-1.54,0.56-2.31c1.46-6.1,3.02-12.89,4.5-18.99
		C369.46,47.67,369.44,46.27,369.05,44.94z M297.73,71.69c1.72-7.19,3.47-14.38,5.22-21.56c0.93-3.81,1.76-4.45,5.67-4.45
		c3.21,0,35.33,0,37.17,0c3.65,0.52,5.84,3.69,4.93,7.49c-1.33,5.53-2.67,11.06-4.01,16.59c-2.16,8.92-10.15,9.4-11.41,9.42
		c-9.76,0-31.15,0-32.64,0C299.01,78.66,296.82,75.49,297.73,71.69z"/>
</g>
<path class="st0" d="M546.8,9.51c0.45-1.02,1.06-1.9,1.83-2.65c0.77-0.75,1.67-1.33,2.69-1.76c1.02-0.43,2.11-0.64,3.26-0.64
	c1.15,0,2.24,0.21,3.25,0.64c1.02,0.43,1.91,1.01,2.67,1.76s1.37,1.63,1.82,2.65c0.45,1.02,0.67,2.12,0.67,3.3
	c0,1.21-0.22,2.33-0.67,3.35c-0.45,1.03-1.05,1.92-1.82,2.67c-0.76,0.76-1.65,1.34-2.67,1.76c-1.02,0.42-2.1,0.63-3.25,0.63
	c-1.15,0-2.24-0.21-3.26-0.63c-1.03-0.42-1.92-1.01-2.69-1.76c-0.77-0.76-1.38-1.65-1.83-2.67c-0.45-1.02-0.67-2.14-0.67-3.35
	C546.12,11.63,546.35,10.53,546.8,9.51z M548.18,15.68c0.35,0.88,0.84,1.63,1.46,2.28c0.62,0.64,1.35,1.15,2.2,1.51
	c0.85,0.37,1.76,0.55,2.75,0.55c0.97,0,1.88-0.18,2.72-0.55c0.84-0.37,1.57-0.87,2.19-1.51c0.62-0.64,1.11-1.4,1.46-2.28
	c0.35-0.87,0.53-1.83,0.53-2.86c0-1-0.18-1.94-0.53-2.81c-0.35-0.87-0.84-1.62-1.46-2.26c-0.62-0.64-1.35-1.14-2.19-1.5
	c-0.84-0.37-1.74-0.55-2.72-0.55c-0.99,0-1.9,0.18-2.75,0.55c-0.85,0.37-1.58,0.87-2.2,1.5c-0.62,0.64-1.11,1.39-1.46,2.26
	c-0.35,0.87-0.53,1.8-0.53,2.81C547.65,13.85,547.82,14.8,548.18,15.68z M555.1,7.94c1.17,0,2.03,0.23,2.59,0.69
	c0.56,0.46,0.84,1.17,0.84,2.11c0,0.88-0.25,1.53-0.74,1.94c-0.49,0.41-1.11,0.66-1.84,0.73l2.81,4.33h-1.64l-2.67-4.22h-1.62v4.22
	h-1.53V7.94H555.1z M554.43,12.3c0.34,0,0.67-0.01,0.98-0.03c0.31-0.02,0.58-0.09,0.82-0.19s0.43-0.27,0.57-0.48
	s0.21-0.52,0.21-0.91c0-0.33-0.06-0.59-0.19-0.79c-0.13-0.19-0.29-0.34-0.49-0.45c-0.2-0.11-0.43-0.18-0.69-0.21
	c-0.26-0.04-0.52-0.05-0.78-0.05h-2.02v3.12H554.43z"/>
<g>
	<path class="st0" d="M4.15,118.5c0-4.03,1.34-7.85,2.11-9.43c0.54,0.87,0.77,1.64,1.17,2.78c-0.54,1.11-1.17,4.16-1.17,6.34
		c0,6.11,2.05,9.19,7.28,9.19c2.31,0,4.39-0.44,5.54-0.81v1.88c-1.11,0.4-3.29,0.77-5.47,0.77C6.67,129.23,4.15,125.14,4.15,118.5z
		 M9.32,107.23c0.74-0.23,2.55-0.47,4.46-0.47c1.41,0,4.13,0.2,5.1,0.5v1.91c-1.31-0.34-3.66-0.6-5.1-0.6
		c-2.82,0-5.17,0.44-6.27,0.97C7.88,108.64,8.65,107.66,9.32,107.23z"/>
	<path class="st0" d="M37.03,118.16c0-3.69,0.74-7.31,1.44-8.99c0.5,0.84,0.94,1.71,1.34,2.89c-0.37,1.21-0.74,3.66-0.74,5.8
		c0,6.98,1.51,9.53,6.71,9.53c1.88,0,3.96-0.54,4.86-1.21c1.17-0.87,1.85-4.53,1.85-8.32c0-6.78-1.61-9.29-6.71-9.29
		c-2.85,0-4.96,0.54-6.11,1.04c0.4-0.94,1.14-2.01,1.81-2.45c0.74-0.2,2.38-0.4,4.29-0.4c6.81,0,8.79,3.49,8.79,11.41
		c0,4.7-1.41,8.72-2.68,9.56c-1.17,0.77-3.76,1.51-6.11,1.51C38.94,129.23,37.03,125.58,37.03,118.16z"/>
	<path class="st0" d="M74.26,107.09h2.15l7.85,13.79l7.88-13.79h2.18l-9.02,15.7h-2.01L74.26,107.09z M74.36,111.08
		c0.6,0.34,1.68,1.17,1.98,2.25v15.53h-1.98V111.08z M92.31,113.33c0.3-1.07,1.38-1.91,1.98-2.25v17.78h-1.98V113.33z"/>
	<path class="st0" d="M115.25,109.74c0.74,0.4,1.58,1.07,1.98,1.74v8.05c0.97,0.1,3.56,0.17,5.03,0.17c1.88,0,4.16-0.2,4.83-0.64
		c0.91-0.6,1.48-3.15,1.48-5.1c0-2.89-0.7-5.13-5.54-5.13h-7.25l-1.88-0.23v-1.51h9.12c6.54,0,7.65,3.19,7.65,7.18
		c0,2.82-1.34,5.77-2.25,6.31c-0.87,0.54-3.66,0.91-6.21,0.91c-1.01,0-2.99-0.03-5-0.1v7.48h-1.98V109.74z"/>
	<path class="st0" d="M148.93,118.16c0-3.69,0.74-7.31,1.44-8.99c0.5,0.84,0.94,1.71,1.34,2.89c-0.37,1.21-0.74,3.66-0.74,5.8
		c0,6.98,1.51,9.53,6.71,9.53c1.88,0,3.96-0.54,4.86-1.21c1.17-0.87,1.85-4.53,1.85-8.32c0-6.78-1.61-9.29-6.71-9.29
		c-2.85,0-4.97,0.54-6.11,1.04c0.4-0.94,1.14-2.01,1.81-2.45c0.74-0.2,2.38-0.4,4.29-0.4c6.81,0,8.79,3.49,8.79,11.41
		c0,4.7-1.41,8.72-2.68,9.56c-1.17,0.77-3.76,1.51-6.11,1.51C150.84,129.23,148.93,125.58,148.93,118.16z"/>
	<path class="st0" d="M186.16,107.06h2.35l14.16,21.81h-2.21L186.16,107.06z M186.26,110.18c0.64,0.37,1.71,2.15,2.01,3.22v15.47
		h-2.01V110.18z M200.59,122.39v-15.3h2.01v18.52C201.96,125.21,200.89,123.46,200.59,122.39z"/>
	<path class="st0" d="M222.66,108.64v-1.54h14.56v1.74h-12.68L222.66,108.64z M223.5,109.74c0.74,0.4,1.58,1.07,1.98,1.71v5.4h10.67
		v1.74h-10.67v8.49h12.45v1.78H223.5V109.74z"/>
	<path class="st0" d="M257.04,107.06h2.35l14.16,21.81h-2.21L257.04,107.06z M257.14,110.18c0.64,0.37,1.71,2.15,2.01,3.22v15.47
		h-2.01V110.18z M271.46,122.39v-15.3h2.01v18.52C272.84,125.21,271.77,123.46,271.46,122.39z"/>
	<path class="st0" d="M291.86,107.09h16.3v1.78h-16.3V107.09z M299.07,109.74c0.74,0.44,1.58,1.07,2.01,1.74v17.38h-2.01V109.74z"/>
	<path class="st0" d="M337.24,123.76c0,0,0.07-0.64,0.07-0.97c0-1.41-0.27-2.21-3.56-3.39l-4.29-1.61c-3.12-1.14-4.13-2.18-4.13-5.4
		c0-0.91,0.23-2.15,0.27-2.25c0.67,0.44,1.27,1.04,1.85,1.81c-0.03,0.17-0.1,0.77-0.1,0.91c0,1.38,0.37,2.28,3.15,3.25l3.86,1.41
		c4.26,1.51,4.96,2.72,4.96,5.13c0,1.14-0.13,2.31-0.34,2.95C338.35,125.17,337.68,124.4,337.24,123.76z M325.5,128.43v-1.95
		c0.67,0.3,3.89,0.91,6.54,0.91c2.68,0,4.63-0.5,5.9-1.44c-0.37,1.11-0.84,2.01-1.58,2.72c-0.57,0.3-2.58,0.57-4.29,0.57
		C329.39,129.23,326.54,128.83,325.5,128.43z M328.49,107.23c0.74-0.23,2.15-0.47,4.19-0.47c1.88,0,4.56,0.27,5.54,0.6v1.85
		c-1.31-0.34-3.66-0.67-5.54-0.67c-2.78,0-4.5,0.44-5.84,1.48C327.11,109,327.78,107.76,328.49,107.23z"/>
</g>
</svg>
